<?xml version="1.0" encoding="UTF-8" standalone="no"?>
<svg
   xmlns:dc="http://purl.org/dc/elements/1.1/"
   xmlns:cc="http://creativecommons.org/ns#"
   xmlns:rdf="http://www.w3.org/1999/02/22-rdf-syntax-ns#"
   xmlns:svg="http://www.w3.org/2000/svg"
   xmlns="http://www.w3.org/2000/svg"
   viewBox="0 0 60.725601 53.692001"
   height="53.692001"
   width="60.725601"
   xml:space="preserve"
   id="svg2"
   version="1.1"><metadata
     id="metadata8"><rdf:RDF><cc:Work
         rdf:about=""><dc:format>image/svg+xml</dc:format><dc:type
           rdf:resource="http://purl.org/dc/dcmitype/StillImage" /></cc:Work></rdf:RDF></metadata><defs
     id="defs6"><clipPath
       id="clipPath34"
       clipPathUnits="userSpaceOnUse"><path
         id="path32"
         d="M 0,40.269 H 45.544 V 0 H 0 Z" /></clipPath><clipPath
       id="clipPath202"
       clipPathUnits="userSpaceOnUse"><path
         id="path200"
         d="M 0,40.269 H 45.544 V 0 H 0 Z" /></clipPath></defs><g
     transform="matrix(1.3333333,0,0,-1.3333333,0,53.692)"
     id="g10"><g
       transform="translate(19.8261,13.194)"
       id="g12"><path
         id="path14"
         style="fill:#d5e0dc;fill-opacity:1;fill-rule:nonzero;stroke:none"
         d="M 0,0 H 25.431 L 12.715,22.912 Z" /></g><g
       transform="translate(0,13.194)"
       id="g16"><path
         id="path18"
         style="fill:#d5e0dc;fill-opacity:1;fill-rule:nonzero;stroke:none"
         d="M 0,0 H 25.43 L 12.715,22.912 Z" /></g><g
       transform="translate(23.4485,36.1061)"
       id="g20"><path
         id="path22"
         style="fill:#bbd9d0;fill-opacity:1;fill-rule:nonzero;stroke:none"
         d="m 0,0 -12.715,-22.912 h 25.43 z" /></g><g
       transform="translate(23.4485,36.1061)"
       id="g24"><path
         id="path26"
         style="fill:#9fccbd;fill-opacity:1;fill-rule:nonzero;stroke:none"
         d="m 0,0 -12.715,-22.912 h 25.43 z" /></g><g
       id="g28"><g
         clip-path="url(#clipPath34)"
         id="g30"><g
           transform="translate(15.8069,16.8288)"
           id="g36"><path
             id="path38"
             style="fill:#ffffff;fill-opacity:1;fill-rule:nonzero;stroke:none"
             d="m 0,0 c -0.166,0 -0.302,0.152 -0.302,0.34 v 11.905 c -0.711,-1.049 -1.798,-1.359 -1.814,-1.363 -0.162,-0.045 -0.325,0.067 -0.364,0.25 -0.04,0.182 0.06,0.365 0.222,0.41 0.084,0.023 1.956,0.573 1.956,2.812 0,0.188 0.136,0.34 0.302,0.34 0.167,0 0.302,-0.152 0.302,-0.34 V 0.34 C 0.302,0.152 0.167,0 0,0" /></g><g
           transform="translate(13.5979,19.0358)"
           id="g40"><path
             id="path42"
             style="fill:#ffffff;fill-opacity:1;fill-rule:nonzero;stroke:none"
             d="m 0,0 c -0.038,0 -0.062,0.002 -0.068,0.002 -0.166,0.01 -0.295,0.169 -0.286,0.356 0.007,0.188 0.15,0.33 0.315,0.323 0.01,-0.002 0.893,-0.037 1.458,0.571 0.324,0.35 0.488,0.857 0.488,1.51 0,0.187 0.136,0.34 0.302,0.34 0.167,0 0.302,-0.153 0.302,-0.34 C 2.511,1.914 2.282,1.239 1.831,0.757 1.175,0.053 0.259,0 0,0" /></g><g
           transform="translate(13.5979,26.0007)"
           id="g44"><path
             id="path46"
             style="fill:#ffffff;fill-opacity:1;fill-rule:nonzero;stroke:none"
             d="m 0,0 c -0.038,0 -0.062,0.002 -0.068,0.002 -0.166,0.009 -0.295,0.169 -0.286,0.356 0.007,0.188 0.15,0.329 0.315,0.323 0.01,-0.002 0.893,-0.037 1.458,0.571 0.324,0.35 0.488,0.857 0.488,1.51 0,0.187 0.136,0.34 0.302,0.34 0.167,0 0.302,-0.153 0.302,-0.34 C 2.511,1.914 2.282,1.239 1.831,0.757 1.175,0.053 0.259,0 0,0" /></g><g
           transform="translate(13.5979,24.2175)"
           id="g48"><path
             id="path50"
             style="fill:#ffffff;fill-opacity:1;fill-rule:nonzero;stroke:none"
             d="m 0,0 c -0.038,0 -0.062,0.001 -0.068,0.002 -0.166,0.009 -0.295,0.168 -0.286,0.355 0.007,0.188 0.15,0.328 0.315,0.323 0.01,-0.001 0.893,-0.037 1.458,0.572 0.324,0.35 0.488,0.857 0.488,1.51 0,0.187 0.136,0.34 0.302,0.34 0.167,0 0.302,-0.153 0.302,-0.34 C 2.511,1.914 2.282,1.239 1.831,0.756 1.175,0.053 0.259,0 0,0" /></g><g
           transform="translate(13.5979,22.4333)"
           id="g52"><path
             id="path54"
             style="fill:#ffffff;fill-opacity:1;fill-rule:nonzero;stroke:none"
             d="m 0,0 c -0.038,0 -0.062,0.002 -0.068,0.002 -0.166,0.01 -0.295,0.169 -0.286,0.356 0.007,0.188 0.15,0.33 0.315,0.323 0.01,-0.002 0.893,-0.037 1.458,0.571 0.324,0.35 0.488,0.858 0.488,1.51 0,0.188 0.136,0.34 0.302,0.34 0.167,0 0.302,-0.152 0.302,-0.34 C 2.511,1.914 2.282,1.239 1.831,0.757 1.175,0.053 0.259,0 0,0" /></g><g
           transform="translate(13.5979,20.6501)"
           id="g56"><path
             id="path58"
             style="fill:#ffffff;fill-opacity:1;fill-rule:nonzero;stroke:none"
             d="m 0,0 c -0.038,0 -0.062,0.001 -0.068,0.002 -0.166,0.009 -0.295,0.169 -0.286,0.355 0.007,0.188 0.15,0.329 0.315,0.324 0.01,-0.001 0.893,-0.038 1.458,0.571 0.324,0.35 0.488,0.857 0.488,1.51 0,0.187 0.136,0.34 0.302,0.34 0.167,0 0.302,-0.153 0.302,-0.34 C 2.511,1.914 2.282,1.239 1.831,0.756 1.175,0.053 0.259,0 0,0" /></g><g
           transform="translate(15.8577,16.8288)"
           id="g60"><path
             id="path62"
             style="fill:#ffffff;fill-opacity:1;fill-rule:nonzero;stroke:none"
             d="m 0,0 c -0.167,0 -0.302,0.152 -0.302,0.34 v 14.014 c 0,0.188 0.135,0.34 0.302,0.34 0.166,0 0.301,-0.152 0.301,-0.34 0,-2.242 1.878,-2.79 1.957,-2.812 C 2.42,11.497 2.519,11.313 2.479,11.132 2.439,10.949 2.278,10.838 2.116,10.882 2.1,10.886 1.012,11.196 0.301,12.245 V 0.34 C 0.301,0.152 0.166,0 0,0" /></g><g
           transform="translate(18.0657,19.0358)"
           id="g64"><path
             id="path66"
             style="fill:#ffffff;fill-opacity:1;fill-rule:nonzero;stroke:none"
             d="m 0,0 c -0.258,0 -1.174,0.053 -1.83,0.757 -0.451,0.482 -0.68,1.157 -0.68,2.005 0,0.187 0.135,0.34 0.302,0.34 0.166,0 0.301,-0.153 0.301,-0.34 0,-0.653 0.165,-1.16 0.489,-1.51 C -0.853,0.644 0.03,0.679 0.04,0.681 0.198,0.689 0.347,0.545 0.355,0.357 0.363,0.17 0.235,0.012 0.069,0.002 0.063,0.002 0.039,0 0,0" /></g><g
           transform="translate(18.0657,26.0007)"
           id="g68"><path
             id="path70"
             style="fill:#ffffff;fill-opacity:1;fill-rule:nonzero;stroke:none"
             d="m 0,0 c -0.258,0 -1.174,0.053 -1.83,0.757 -0.451,0.482 -0.68,1.157 -0.68,2.005 0,0.187 0.135,0.34 0.302,0.34 0.166,0 0.301,-0.153 0.301,-0.34 0,-0.653 0.165,-1.16 0.489,-1.51 C -0.853,0.643 0.03,0.679 0.04,0.681 0.198,0.688 0.347,0.544 0.355,0.357 0.363,0.17 0.235,0.011 0.069,0.002 0.063,0.002 0.039,0 0,0" /></g><g
           transform="translate(18.0657,24.2175)"
           id="g72"><path
             id="path74"
             style="fill:#ffffff;fill-opacity:1;fill-rule:nonzero;stroke:none"
             d="m 0,0 c -0.258,0 -1.174,0.053 -1.83,0.756 -0.451,0.483 -0.68,1.158 -0.68,2.006 0,0.187 0.135,0.34 0.302,0.34 0.166,0 0.301,-0.153 0.301,-0.34 0,-0.653 0.165,-1.16 0.489,-1.51 C -0.853,0.643 0.03,0.679 0.04,0.68 0.198,0.688 0.347,0.544 0.355,0.356 0.363,0.17 0.235,0.011 0.069,0.002 0.063,0.001 0.039,0 0,0" /></g><g
           transform="translate(18.0657,22.4333)"
           id="g76"><path
             id="path78"
             style="fill:#ffffff;fill-opacity:1;fill-rule:nonzero;stroke:none"
             d="m 0,0 c -0.258,0 -1.174,0.053 -1.83,0.757 -0.451,0.482 -0.68,1.157 -0.68,2.005 0,0.188 0.135,0.34 0.302,0.34 0.166,0 0.301,-0.152 0.301,-0.34 0,-0.652 0.165,-1.16 0.489,-1.51 C -0.853,0.644 0.03,0.679 0.04,0.681 0.198,0.689 0.347,0.545 0.355,0.357 0.363,0.17 0.235,0.012 0.069,0.002 0.063,0.002 0.039,0 0,0" /></g><g
           transform="translate(18.0657,20.6501)"
           id="g80"><path
             id="path82"
             style="fill:#ffffff;fill-opacity:1;fill-rule:nonzero;stroke:none"
             d="m 0,0 c -0.258,0 -1.174,0.053 -1.83,0.756 -0.451,0.483 -0.68,1.158 -0.68,2.006 0,0.187 0.135,0.34 0.302,0.34 0.166,0 0.301,-0.153 0.301,-0.34 0,-0.653 0.165,-1.16 0.489,-1.51 C -0.853,0.643 0.03,0.679 0.04,0.681 0.198,0.685 0.347,0.544 0.355,0.356 0.363,0.17 0.235,0.011 0.069,0.002 0.063,0.001 0.039,0 0,0" /></g><g
           transform="translate(15.2034,16.8288)"
           id="g84"><path
             id="path86"
             style="fill:#070644;fill-opacity:1;fill-rule:nonzero;stroke:none"
             d="m 0,0 c -0.166,0 -0.301,0.152 -0.301,0.34 v 11.905 c -0.711,-1.049 -1.799,-1.359 -1.814,-1.363 -0.163,-0.045 -0.325,0.067 -0.364,0.25 -0.04,0.182 0.06,0.365 0.221,0.41 0.084,0.023 1.957,0.573 1.957,2.812 0,0.188 0.135,0.34 0.301,0.34 0.167,0 0.302,-0.152 0.302,-0.34 V 0.34 C 0.302,0.152 0.167,0 0,0" /></g><g
           transform="translate(12.9954,19.0358)"
           id="g88"><path
             id="path90"
             style="fill:#070644;fill-opacity:1;fill-rule:nonzero;stroke:none"
             d="m 0,0 c -0.039,0 -0.063,0.002 -0.069,0.002 -0.166,0.01 -0.294,0.169 -0.286,0.356 0.008,0.188 0.15,0.33 0.315,0.323 0.009,-0.002 0.893,-0.037 1.458,0.571 0.324,0.35 0.489,0.857 0.489,1.51 0,0.187 0.135,0.34 0.301,0.34 0.167,0 0.302,-0.153 0.302,-0.34 C 2.51,1.914 2.281,1.239 1.831,0.757 1.174,0.053 0.258,0 0,0" /></g><g
           transform="translate(12.9954,26.0007)"
           id="g92"><path
             id="path94"
             style="fill:#070644;fill-opacity:1;fill-rule:nonzero;stroke:none"
             d="m 0,0 c -0.039,0 -0.063,0.002 -0.069,0.002 -0.166,0.009 -0.294,0.169 -0.286,0.356 0.008,0.188 0.15,0.329 0.315,0.323 0.009,-0.002 0.893,-0.037 1.458,0.571 0.324,0.35 0.489,0.857 0.489,1.51 0,0.187 0.135,0.34 0.301,0.34 0.167,0 0.302,-0.153 0.302,-0.34 C 2.51,1.914 2.281,1.239 1.831,0.757 1.174,0.053 0.258,0 0,0" /></g><g
           transform="translate(12.9954,24.2175)"
           id="g96"><path
             id="path98"
             style="fill:#070644;fill-opacity:1;fill-rule:nonzero;stroke:none"
             d="m 0,0 c -0.039,0 -0.063,0.001 -0.069,0.002 -0.166,0.009 -0.294,0.168 -0.286,0.355 0.008,0.188 0.15,0.328 0.315,0.323 0.009,-0.001 0.893,-0.037 1.458,0.572 0.324,0.35 0.489,0.857 0.489,1.51 0,0.187 0.135,0.34 0.301,0.34 0.167,0 0.302,-0.153 0.302,-0.34 C 2.51,1.914 2.281,1.239 1.831,0.756 1.174,0.053 0.258,0 0,0" /></g><g
           transform="translate(12.9954,22.4333)"
           id="g100"><path
             id="path102"
             style="fill:#070644;fill-opacity:1;fill-rule:nonzero;stroke:none"
             d="m 0,0 c -0.039,0 -0.063,0.002 -0.069,0.002 -0.166,0.01 -0.294,0.169 -0.286,0.356 0.008,0.188 0.15,0.33 0.315,0.323 0.009,-0.002 0.893,-0.037 1.458,0.571 0.324,0.35 0.489,0.858 0.489,1.51 0,0.188 0.135,0.34 0.301,0.34 C 2.375,3.102 2.51,2.95 2.51,2.762 2.51,1.914 2.281,1.239 1.831,0.757 1.174,0.053 0.258,0 0,0" /></g><g
           transform="translate(12.9954,20.6501)"
           id="g104"><path
             id="path106"
             style="fill:#070644;fill-opacity:1;fill-rule:nonzero;stroke:none"
             d="m 0,0 c -0.039,0 -0.063,0.001 -0.069,0.002 -0.166,0.009 -0.294,0.169 -0.286,0.355 0.008,0.188 0.15,0.329 0.315,0.324 0.009,-0.001 0.893,-0.038 1.458,0.571 0.324,0.35 0.489,0.857 0.489,1.51 0,0.187 0.135,0.34 0.301,0.34 0.167,0 0.302,-0.153 0.302,-0.34 C 2.51,1.914 2.281,1.239 1.831,0.756 1.174,0.053 0.258,0 0,0" /></g><g
           transform="translate(15.2542,16.8288)"
           id="g108"><path
             id="path110"
             style="fill:#070644;fill-opacity:1;fill-rule:nonzero;stroke:none"
             d="m 0,0 c -0.167,0 -0.302,0.152 -0.302,0.34 v 14.014 c 0,0.188 0.135,0.34 0.302,0.34 0.167,0 0.302,-0.152 0.302,-0.34 0,-2.242 1.877,-2.79 1.957,-2.812 C 2.42,11.497 2.52,11.313 2.479,11.132 2.44,10.949 2.277,10.838 2.116,10.882 2.1,10.886 1.013,11.196 0.302,12.245 V 0.34 C 0.302,0.152 0.167,0 0,0" /></g><g
           transform="translate(17.4631,19.0358)"
           id="g112"><path
             id="path114"
             style="fill:#070644;fill-opacity:1;fill-rule:nonzero;stroke:none"
             d="m 0,0 c -0.259,0 -1.175,0.053 -1.831,0.757 -0.451,0.482 -0.68,1.157 -0.68,2.005 0,0.187 0.135,0.34 0.302,0.34 0.167,0 0.302,-0.153 0.302,-0.34 0,-0.653 0.164,-1.16 0.488,-1.51 C -0.854,0.644 0.03,0.679 0.039,0.681 0.195,0.689 0.347,0.545 0.354,0.357 0.362,0.17 0.234,0.012 0.068,0.002 0.062,0.002 0.038,0 0,0" /></g><g
           transform="translate(17.4631,26.0007)"
           id="g116"><path
             id="path118"
             style="fill:#070644;fill-opacity:1;fill-rule:nonzero;stroke:none"
             d="m 0,0 c -0.259,0 -1.175,0.053 -1.831,0.757 -0.451,0.482 -0.68,1.157 -0.68,2.005 0,0.187 0.135,0.34 0.302,0.34 0.167,0 0.302,-0.153 0.302,-0.34 0,-0.653 0.164,-1.16 0.488,-1.51 C -0.854,0.643 0.03,0.679 0.039,0.681 0.195,0.688 0.347,0.544 0.354,0.357 0.362,0.17 0.234,0.011 0.068,0.002 0.062,0.002 0.038,0 0,0" /></g><g
           transform="translate(17.4631,24.2175)"
           id="g120"><path
             id="path122"
             style="fill:#070644;fill-opacity:1;fill-rule:nonzero;stroke:none"
             d="m 0,0 c -0.259,0 -1.175,0.053 -1.831,0.756 -0.451,0.483 -0.68,1.158 -0.68,2.006 0,0.187 0.135,0.34 0.302,0.34 0.167,0 0.302,-0.153 0.302,-0.34 0,-0.653 0.164,-1.16 0.488,-1.51 C -0.854,0.643 0.03,0.679 0.039,0.68 0.195,0.688 0.347,0.544 0.354,0.356 0.362,0.17 0.234,0.011 0.068,0.002 0.062,0.001 0.038,0 0,0" /></g><g
           transform="translate(17.4631,22.4333)"
           id="g124"><path
             id="path126"
             style="fill:#070644;fill-opacity:1;fill-rule:nonzero;stroke:none"
             d="m 0,0 c -0.259,0 -1.175,0.053 -1.831,0.757 -0.451,0.482 -0.68,1.157 -0.68,2.005 0,0.188 0.135,0.34 0.302,0.34 0.167,0 0.302,-0.152 0.302,-0.34 0,-0.652 0.164,-1.16 0.488,-1.51 C -0.854,0.644 0.03,0.679 0.039,0.681 0.195,0.689 0.347,0.545 0.354,0.357 0.362,0.17 0.234,0.012 0.068,0.002 0.062,0.002 0.038,0 0,0" /></g><g
           transform="translate(17.4631,20.6501)"
           id="g128"><path
             id="path130"
             style="fill:#070644;fill-opacity:1;fill-rule:nonzero;stroke:none"
             d="m 0,0 c -0.259,0 -1.175,0.053 -1.831,0.756 -0.451,0.483 -0.68,1.158 -0.68,2.006 0,0.187 0.135,0.34 0.302,0.34 0.167,0 0.302,-0.153 0.302,-0.34 0,-0.653 0.164,-1.16 0.488,-1.51 C -0.854,0.643 0.03,0.679 0.039,0.681 0.195,0.685 0.347,0.544 0.354,0.356 0.362,0.17 0.234,0.011 0.068,0.002 0.062,0.001 0.038,0 0,0" /></g><g
           transform="translate(22.0471,16.6618)"
           id="g132"><path
             id="path134"
             style="fill:#ffffff;fill-opacity:1;fill-rule:nonzero;stroke:none"
             d="M 0,0 C -0.17,0 -0.308,0.155 -0.308,0.347 V 6.534 C -0.883,5.731 -1.656,5.601 -1.668,5.599 -1.836,5.573 -1.991,5.706 -2.014,5.896 c -0.022,0.188 0.095,0.362 0.262,0.388 0.065,0.011 1.444,0.274 1.444,2.513 0,0.191 0.138,0.346 0.308,0.346 0.17,0 0.308,-0.155 0.308,-0.346 V 0.347 C 0.308,0.155 0.17,0 0,0" /></g><g
           transform="translate(19.7971,20.1794)"
           id="g136"><path
             id="path138"
             style="fill:#ffffff;fill-opacity:1;fill-rule:nonzero;stroke:none"
             d="m 0,0 c -0.04,0 -0.064,0.001 -0.07,0.002 -0.169,0.01 -0.3,0.172 -0.291,0.362 0.007,0.192 0.151,0.335 0.321,0.329 0.009,-0.001 0.909,-0.038 1.484,0.582 0.331,0.357 0.498,0.874 0.498,1.538 0,0.192 0.138,0.346 0.308,0.346 0.17,0 0.308,-0.154 0.308,-0.346 C 2.558,1.95 2.324,1.263 1.865,0.771 1.196,0.054 0.263,0 0,0" /></g><g
           transform="translate(19.7971,18.363)"
           id="g140"><path
             id="path142"
             style="fill:#ffffff;fill-opacity:1;fill-rule:nonzero;stroke:none"
             d="m 0,0 c -0.04,0 -0.064,0.001 -0.07,0.001 -0.169,0.01 -0.3,0.172 -0.291,0.363 0.007,0.191 0.151,0.332 0.321,0.328 0.009,-0.001 0.909,-0.038 1.484,0.582 0.331,0.357 0.498,0.874 0.498,1.539 0,0.191 0.138,0.346 0.308,0.346 0.17,0 0.308,-0.155 0.308,-0.346 C 2.558,1.949 2.324,1.262 1.865,0.77 1.196,0.053 0.263,0 0,0" /></g><g
           transform="translate(22.0979,16.6618)"
           id="g144"><path
             id="path146"
             style="fill:#ffffff;fill-opacity:1;fill-rule:nonzero;stroke:none"
             d="m 0,0 c -0.17,0 -0.307,0.155 -0.307,0.347 v 8.45 c 0,0.191 0.137,0.346 0.307,0.346 0.17,0 0.308,-0.155 0.308,-0.346 0,-2.27 1.47,-2.674 1.533,-2.691 C 2.005,6.063 2.109,5.88 2.072,5.693 2.036,5.508 1.875,5.391 1.709,5.431 1.696,5.434 0.896,5.642 0.308,6.51 V 0.347 C 0.308,0.155 0.17,0 0,0" /></g><g
           transform="translate(24.3479,20.1794)"
           id="g148"><path
             id="path150"
             style="fill:#ffffff;fill-opacity:1;fill-rule:nonzero;stroke:none"
             d="m 0,0 c -0.263,0 -1.195,0.054 -1.864,0.771 -0.46,0.492 -0.693,1.179 -0.693,2.042 0,0.192 0.137,0.346 0.307,0.346 0.17,0 0.308,-0.154 0.308,-0.346 0,-0.664 0.168,-1.181 0.498,-1.538 C -0.869,0.655 0.032,0.692 0.041,0.693 0.202,0.702 0.354,0.555 0.361,0.363 0.369,0.173 0.239,0.012 0.07,0.002 0.064,0.001 0.04,0 0,0" /></g><g
           transform="translate(24.3479,18.363)"
           id="g152"><path
             id="path154"
             style="fill:#ffffff;fill-opacity:1;fill-rule:nonzero;stroke:none"
             d="m 0,0 c -0.263,0 -1.195,0.053 -1.864,0.77 -0.46,0.492 -0.693,1.179 -0.693,2.043 0,0.191 0.137,0.346 0.307,0.346 0.17,0 0.308,-0.155 0.308,-0.346 0,-0.665 0.168,-1.182 0.498,-1.539 C -0.869,0.654 0.032,0.691 0.041,0.692 0.202,0.701 0.354,0.554 0.361,0.363 0.369,0.173 0.239,0.011 0.07,0.001 0.064,0.001 0.04,0 0,0" /></g><g
           transform="translate(21.4329,16.6618)"
           id="g156"><path
             id="path158"
             style="fill:#070644;fill-opacity:1;fill-rule:nonzero;stroke:none"
             d="M 0,0 C -0.17,0 -0.308,0.155 -0.308,0.347 V 6.534 C -0.883,5.731 -1.656,5.601 -1.669,5.599 -1.836,5.573 -1.991,5.706 -2.015,5.896 c -0.022,0.188 0.095,0.362 0.262,0.388 0.066,0.011 1.445,0.274 1.445,2.513 0,0.191 0.138,0.346 0.308,0.346 0.169,0 0.307,-0.155 0.307,-0.346 V 0.347 C 0.307,0.155 0.169,0 0,0" /></g><g
           transform="translate(19.1829,20.1794)"
           id="g160"><path
             id="path162"
             style="fill:#070644;fill-opacity:1;fill-rule:nonzero;stroke:none"
             d="m 0,0 c -0.04,0 -0.064,0.001 -0.07,0.002 -0.17,0.01 -0.3,0.172 -0.292,0.362 0.008,0.192 0.152,0.335 0.321,0.329 0.009,-0.001 0.909,-0.038 1.485,0.582 0.33,0.357 0.498,0.874 0.498,1.538 0,0.192 0.138,0.346 0.308,0.346 0.169,0 0.307,-0.154 0.307,-0.346 C 2.557,1.95 2.324,1.263 1.864,0.771 1.195,0.054 0.263,0 0,0" /></g><g
           transform="translate(19.1829,18.363)"
           id="g164"><path
             id="path166"
             style="fill:#070644;fill-opacity:1;fill-rule:nonzero;stroke:none"
             d="m 0,0 c -0.04,0 -0.064,0.001 -0.07,0.001 -0.17,0.01 -0.3,0.172 -0.292,0.363 0.008,0.191 0.152,0.332 0.321,0.328 0.009,-0.001 0.909,-0.038 1.485,0.582 0.33,0.357 0.498,0.874 0.498,1.539 0,0.191 0.138,0.346 0.308,0.346 0.169,0 0.307,-0.155 0.307,-0.346 C 2.557,1.949 2.324,1.262 1.864,0.77 1.195,0.053 0.263,0 0,0" /></g><g
           transform="translate(21.4836,16.6618)"
           id="g168"><path
             id="path170"
             style="fill:#070644;fill-opacity:1;fill-rule:nonzero;stroke:none"
             d="m 0,0 c -0.17,0 -0.308,0.155 -0.308,0.347 v 8.45 c 0,0.191 0.138,0.346 0.308,0.346 0.17,0 0.308,-0.155 0.308,-0.346 0,-2.27 1.469,-2.674 1.532,-2.691 C 2.005,6.063 2.109,5.88 2.072,5.693 2.036,5.508 1.874,5.391 1.708,5.431 1.695,5.434 0.896,5.642 0.308,6.51 V 0.347 C 0.308,0.155 0.17,0 0,0" /></g><g
           transform="translate(23.7336,20.1794)"
           id="g172"><path
             id="path174"
             style="fill:#070644;fill-opacity:1;fill-rule:nonzero;stroke:none"
             d="m 0,0 c -0.263,0 -1.196,0.054 -1.865,0.771 -0.459,0.492 -0.693,1.179 -0.693,2.042 0,0.192 0.138,0.346 0.308,0.346 0.17,0 0.308,-0.154 0.308,-0.346 0,-0.664 0.167,-1.181 0.498,-1.538 C -0.869,0.655 0.03,0.692 0.04,0.693 0.199,0.702 0.354,0.555 0.361,0.363 0.369,0.173 0.239,0.012 0.07,0.002 0.063,0.001 0.039,0 0,0" /></g><g
           transform="translate(23.7336,18.363)"
           id="g176"><path
             id="path178"
             style="fill:#070644;fill-opacity:1;fill-rule:nonzero;stroke:none"
             d="m 0,0 c -0.263,0 -1.196,0.053 -1.865,0.77 -0.459,0.492 -0.693,1.179 -0.693,2.043 0,0.191 0.138,0.346 0.308,0.346 0.17,0 0.308,-0.155 0.308,-0.346 0,-0.665 0.167,-1.182 0.498,-1.539 C -0.869,0.654 0.03,0.691 0.04,0.692 0.199,0.701 0.354,0.554 0.361,0.363 0.369,0.173 0.239,0.011 0.07,0.001 0.063,0.001 0.039,0 0,0" /></g><g
           transform="translate(21.8206,26.8884)"
           id="g180"><path
             id="path182"
             style="fill:#070644;fill-opacity:1;fill-rule:nonzero;stroke:none"
             d="m 0,0 c -0.079,0 -0.158,0.034 -0.219,0.103 -0.122,0.136 -0.122,0.357 0,0.494 L 1.457,2.484 0.984,2.857 C 0.913,2.914 0.865,3.002 0.855,3.101 0.844,3.199 0.871,3.298 0.929,3.372 L 3.021,6.079 C 3.135,6.224 3.33,6.239 3.459,6.112 3.588,5.986 3.602,5.766 3.489,5.62 L 1.623,3.207 2.116,2.818 C 2.191,2.759 2.239,2.665 2.247,2.563 2.255,2.46 2.222,2.358 2.157,2.285 L 0.22,0.103 C 0.158,0.034 0.079,0 0,0" /></g><g
           transform="translate(36.1633,16.3347)"
           id="g184"><path
             id="path186"
             style="fill:#070644;fill-opacity:1;fill-rule:nonzero;stroke:none"
             d="m 0,0 h -25.43 c -0.131,0 -0.252,0.08 -0.315,0.209 -0.064,0.129 -0.06,0.286 0.01,0.411 l 1.274,2.296 c 0.106,0.19 0.327,0.248 0.496,0.129 0.168,-0.118 0.22,-0.368 0.114,-0.559 l -0.93,-1.675 h 24.132 l -12.066,21.742 -5.034,-9.071 c -0.105,-0.19 -0.327,-0.248 -0.495,-0.128 -0.169,0.118 -0.22,0.368 -0.114,0.558 l 5.337,9.619 c 0.067,0.119 0.182,0.191 0.306,0.191 0.124,0 0.239,-0.072 0.305,-0.191 L 0.305,0.62 C 0.375,0.495 0.378,0.338 0.314,0.209 0.251,0.08 0.131,0 0,0" /></g></g></g><text
       id="text190"
       style="font-variant:normal;font-weight:bold;font-stretch:normal;font-size:6.85760021px;font-family:'Myriad Pro';-inkscape-font-specification:Montserrat-Bold;writing-mode:lr-tb;fill:#070644;fill-opacity:1;fill-rule:nonzero;stroke:none"
       transform="matrix(0.88790539,0,0,-1,5.6387,9.8682)"><tspan
         id="tspan188"
         y="0"
         x="0 6.3364224 11.884221 17.143999 22.479214 26.195347 31.215109 33.676987">MOUNTAIN</tspan></text>
<text
       id="text194"
       style="font-variant:normal;font-weight:500;font-stretch:normal;font-size:3.57669997px;font-family:'Myriad Pro';-inkscape-font-specification:Montserrat-Medium;writing-mode:lr-tb;fill:#070644;fill-opacity:1;fill-rule:nonzero;stroke:none"
       transform="matrix(0.88791344,0,0,-1,12.2979,4.4648)"><tspan
         id="tspan192"
         y="0"
         x="0 2.7612123 4.0452476 6.413023 7.6970582 10.479731 13.219483 14.406947 16.910637 18.899282 21.642612">HIKING CLUB</tspan></text>
<g
       id="g196"><g
         clip-path="url(#clipPath202)"
         id="g198"><g
           transform="translate(28.5764,0.1393)"
           id="g204"><path
             id="path206"
             style="fill:#070644;fill-opacity:1;fill-rule:nonzero;stroke:none"
             d="m 0,0 h -9.504 c -0.139,0 -0.252,0.127 -0.252,0.284 0,0.156 0.113,0.284 0.252,0.284 H 0 C 0.14,0.568 0.253,0.44 0.253,0.284 0.253,0.127 0.14,0 0,0" /></g></g></g></g></svg>